<svg width="1119" height="1118" viewBox="0 0 1119 1118" fill="none" xmlns="http://www.w3.org/2000/svg">
<mask id="mask0_4307_912" style="mask-type:luminance" maskUnits="userSpaceOnUse" x="0" y="0" width="1119" height="1118">
<path d="M1118.77 0H0.765625V1118H1118.77V0Z" fill="white"/>
</mask>
<g mask="url(#mask0_4307_912)">
<path d="M538.99 678.029C537.042 676.501 534.771 677.293 528.085 674.451C526.79 673.901 523.406 673.064 521.893 672.808C521.609 672.76 521.38 672.555 521.297 672.28C519.058 664.762 509.196 629.994 507.919 619.919C506.612 609.618 498.587 566.019 497.363 559.389C497.279 558.938 496.821 558.666 496.384 558.804L477.405 564.735C477.015 564.856 476.789 565.261 476.891 565.655C478.236 570.839 486.612 603.399 489.291 619.923C491.424 633.098 512.448 674.921 512.928 677.624C512.933 677.648 512.938 677.672 512.941 677.696C513.086 678.508 513.804 679.091 514.629 679.065C519.491 678.914 535.077 678.43 535.965 678.407C536.777 678.384 539.599 678.506 538.99 678.029Z" fill="#F49185"/>
<path d="M492.949 542.968C482.756 512.049 471.357 513.368 471.357 513.368L480.173 578.371C486.466 576.65 494.663 572.818 500.949 571.043C498.864 561.269 495.46 550.583 492.949 542.968Z" fill="#1F4163"/>
<path d="M494.435 466.118C493.837 445.553 477.376 428.782 457.068 436.21C452.502 437.88 446.135 441.628 442.697 445.069C433.402 454.369 429.778 466.827 420.258 475.794C423.013 478.478 426.395 481.354 430.488 484.222L436.498 477.983L433.66 486.344C445.719 494.067 463.195 501.37 487.976 504.294C492.824 490.658 494.753 477.088 494.435 466.118Z" fill="#F47B60"/>
<path d="M492.117 912.904C489.18 910.74 486.811 909.307 477.43 904.759C476.819 904.462 474.591 903.043 473.788 902.551C471.753 901.304 469.707 899.346 467.947 897.38C466.265 895.505 465.462 889.489 465.084 884.696C466.049 873.992 481.562 702.313 484.833 683.727C488.211 664.544 483.066 635.279 483.066 635.279L471.091 630.764L448.358 709.552L450.151 769.527C450.151 769.527 444.805 786.814 444.13 797.145C443.456 807.475 451.858 891.328 451.858 891.328C451.858 894.326 451.74 897.035 451.408 898.73C450.79 901.866 447.353 908.325 448.93 911.275C450.506 914.227 452.308 914.965 452.308 914.965L493.156 915.624C495.381 915.662 493.912 914.225 492.117 912.904Z" fill="#F49185"/>
<path d="M430.126 629.117C430.126 629.117 415.942 650.516 412.566 668.225C409.188 685.934 415.044 740.353 408.548 763.561C405.03 776.123 391.702 795.522 389.675 811.755C387.649 827.987 380.598 874.841 380.598 874.841C379.53 879.758 377.862 885.842 375.694 888.67C374.366 890.401 371.94 892.593 370.348 895.723C367.87 900.592 369.241 907.841 371.069 911.835C372.006 913.883 371.001 913.879 373.139 914.539C379.465 916.495 386.195 913.202 388.889 907.13C390.394 903.736 391.713 899.21 391.979 893.508C392.261 887.464 393.206 882.662 394.213 879.11L439.551 767.893L472.375 671.909L480.784 622.479L430.126 629.117Z" fill="#F7A192"/>
<path d="M390.116 903.935C380.303 905.728 373.772 899.974 370.374 895.668C367.881 900.548 366.667 907.831 368.501 911.837C370.117 915.368 374.838 915.268 378.556 915.405C382.487 915.552 385.526 913.364 387.476 909.933C388.387 908.331 389.33 906.333 390.116 903.935Z" fill="#8CB5F2"/>
<path d="M473.787 902.542C462.985 905.32 455 903.429 450.532 901.625C449.381 904.896 447.853 909.001 448.663 911.368C449.654 914.266 451.067 914.925 452.314 914.958C462.181 915.218 488.459 915.569 495.981 915.668C497.032 915.683 497.612 914.451 496.936 913.644C495.071 911.41 474.593 903.036 473.787 902.542Z" fill="#8CB5F2"/>
<path d="M439.318 765.793C440.165 765.85 441.019 765.906 441.877 765.959C441.921 765.961 441.964 765.963 442.008 765.965C442.851 766.016 443.696 766.066 444.543 766.109C444.596 766.112 444.648 766.112 444.698 766.116C445.548 766.16 446.399 766.199 447.253 766.236C447.297 766.238 447.34 766.24 447.382 766.24C448.251 766.278 449.12 766.312 449.991 766.341C459.673 766.657 471.635 766.535 479.308 765.229C483.219 726.069 484.678 690.328 486.125 682.417C489.637 663.234 483.064 632.952 483.064 632.952L479.928 632.388L481.911 621.178L429.23 627.818C429.23 627.818 414.479 649.213 410.968 666.922C407.457 684.631 413.547 739.052 406.791 762.26C406.791 762.26 421.829 764.603 439.318 765.793Z" fill="#59C2A9"/>
<path d="M445.701 506.865C445.701 506.865 429.229 504.188 421.55 512.07C413.873 519.952 433.515 585.765 434.543 596.13C435.573 606.498 426.488 633.696 426.488 633.696C426.488 633.696 470.308 643.958 483.169 635.992C483.169 635.992 486.827 561.789 485.705 554.37C484.586 546.953 474.264 516.611 471.656 513.576C469.046 510.542 445.701 506.865 445.701 506.865Z" fill="#3F5B8F"/>
<path d="M454.597 481.853C454.597 481.853 454.454 482.397 454.204 483.323C452.994 487.763 448.538 502.457 446.027 506.39C442.99 511.142 453.279 527.958 464.61 526.951C467.982 526.65 463.007 512.153 463.426 510.695C464.225 507.905 465.312 504.099 466.425 500.195C467.053 497.995 467.687 495.762 468.284 493.664C469.982 487.701 471.369 482.824 471.369 482.824L454.597 481.853Z" fill="#F7A896"/>
<path d="M454.206 483.326C454.458 482.4 454.6 481.855 454.6 481.855L471.373 482.827C471.373 482.827 469.987 487.703 468.289 493.667C467.695 495.754 467.061 497.971 466.437 500.161C463.886 499.566 461.289 498.084 458.78 495.483C456.044 492.648 454.368 489.376 453.477 485.958C453.77 484.913 454.017 484.013 454.206 483.326Z" fill="#F47B60"/>
<path d="M469.026 444.658C469.026 444.658 461.211 443.089 455.733 449.089C450.257 455.09 443.282 474.47 454.671 486.268C466.061 498.063 479.212 486.872 482.085 474.086C484.959 461.301 486.961 445.676 469.026 444.658Z" fill="#F7A896"/>
<path d="M485.729 474.2C484.025 476.935 481.432 478.315 479.938 477.28C478.445 476.242 478.613 473.186 480.317 470.451C482.018 467.715 484.613 466.338 486.107 467.375C487.601 468.411 487.432 471.464 485.729 474.2Z" fill="#F7A896"/>
<path d="M470.073 442.618C470.073 442.618 457.969 460.597 450.357 460.841C442.744 461.086 440.923 471.018 440.923 471.018C440.923 471.018 445.535 448.162 453.369 444.329C461.202 440.499 470.073 442.618 470.073 442.618Z" fill="#F47B60"/>
<path d="M451.946 465.735C452.281 469.133 450.793 472.101 448.621 472.364C446.45 472.626 444.42 470.082 444.084 466.684C443.748 463.287 445.237 460.319 447.408 460.056C449.579 459.794 451.61 462.338 451.946 465.735Z" fill="#F7A896"/>
<path d="M460.218 478.674L471.437 481.864C471.437 481.864 469.968 486.052 464.993 484.791C458.929 483.254 460.218 478.674 460.218 478.674Z" fill="white"/>
<path d="M334.345 562.982C333.811 561.265 342.111 560.182 342.611 558.482C343.11 556.78 332.256 556.269 331.92 554.746C331.301 551.943 343.841 554.576 343.64 553.269C343.436 551.961 330.637 548.61 332.109 546.43C333.581 544.248 345.018 551.29 345.423 549.79C345.83 548.289 334.198 544.199 334.525 540.891C334.7 539.122 353.516 550.402 355.775 549.515C358.035 548.63 353.706 540.138 355.521 538.963C357.334 537.789 361.787 556.133 362.988 556.781C364.186 557.429 389.593 573.128 398.736 575.8C399.961 572.752 408.582 556.653 409.671 553.767C414.718 557.63 420.692 558.643 425.916 562.185C421.709 571.748 407.583 595.159 404.845 596.283C396.507 599.705 365.679 572.27 359.5 567.542C353.314 562.811 349.633 564.148 345.395 562.574C341.156 560.999 334.878 564.7 334.345 562.982Z" fill="#F7A896"/>
<path d="M422.133 578.946C422.133 578.946 441.62 545.896 442.99 533.993C444.359 522.092 433.411 507.887 422.922 509.454C412.436 511.022 400.244 565.512 400.244 565.512L422.133 578.946Z" fill="#1F4163"/>
<path d="M783.428 674.079L838.583 658.827C838.583 658.827 851.01 634.015 869.41 607.259C875.686 613.257 879.278 622.576 885.596 628.512L850.291 674.691C848.662 676.558 779.395 684.788 779.395 684.788L783.428 674.079Z" fill="#F49185"/>
<path d="M862.156 546.249C860.656 535.831 861.145 525.345 864.835 515.127C868.009 506.338 877.487 500.569 886.575 499.63C915.425 496.656 922.975 534.405 942.84 547.242C948.908 551.163 955.555 554.185 961.359 558.489C982.789 574.386 977.328 608.41 960.921 625.929C949.534 638.087 930.525 646.271 914.259 639.33C905.767 635.706 898.913 628.943 893.74 621.296C886.402 610.441 881.075 597.599 875.441 585.809C869.442 573.259 864.149 560.095 862.156 546.249Z" fill="#F7CE85"/>
<path d="M879.651 639.724C879.651 639.724 901.227 617.231 906.745 607.492C912.265 597.751 902.905 604.139 893.269 601.668C889.619 600.733 890.364 579.388 883.539 586.382C872.34 597.854 858.308 617.868 858.308 617.868L879.651 639.724Z" fill="#9BDACB"/>
<path d="M314.184 676.983C314.905 675.991 313.324 674.159 312.138 672.787C310.825 671.265 302.605 667.185 301.198 666.674C300.01 666.24 291.051 666.945 285.405 667.95L285.406 667.945L224.109 649.701C224.109 649.701 211.625 623.074 192.866 594.223C186.053 600.404 181.991 610.179 175.133 616.293L207.749 664.977C208.902 666.367 245.51 672.395 268.273 676.023C274.025 676.94 278.855 677.697 282.044 678.194C286.609 679.37 289.824 680.576 290.389 680.592C293.703 680.684 299.949 677.541 301.384 677.105C302.817 676.672 305.648 677.221 307.517 678.22C309.384 679.22 314.849 681.647 315.808 681.2C316.768 680.754 314.184 676.983 314.184 676.983Z" fill="#F49185"/>
<path d="M195.754 643.223C195.754 643.223 178.535 618.931 172.313 607.487C166.092 596.042 176.851 603.667 188.11 600.99C192.376 599.975 189.463 576.761 197.261 585.036C210.052 598.611 222.477 627.624 222.477 627.624L195.754 643.223Z" fill="#BA5F4B"/>
<path d="M871.288 372.68H1019.4C1026.62 372.68 1032.47 378.554 1032.47 385.801V472.385C1032.47 479.63 1026.62 485.506 1019.4 485.506H915.764C909.102 494.834 897.022 511.539 895.954 511.539C894.956 511.539 896.878 495.76 898.234 485.506H871.288C864.065 485.506 858.211 479.63 858.211 472.385V385.801C858.211 378.554 864.065 372.68 871.288 372.68Z" fill="#CCE2F9"/>
<path d="M201.496 395.873H53.6011C46.3887 395.873 40.541 401.74 40.541 408.977V495.434C40.541 502.67 46.3887 508.538 53.6011 508.538H157.086C163.737 517.853 175.799 534.533 176.865 534.533C177.861 534.533 175.941 518.777 174.59 508.538H201.496C208.708 508.538 214.554 502.67 214.554 495.434V408.977C214.554 401.74 208.708 395.873 201.496 395.873Z" fill="#CCE2F9"/>
<path d="M464.058 304.846H316.163C308.951 304.846 303.105 310.715 303.105 317.952V404.407C303.105 411.643 308.951 417.513 316.163 417.513H419.648C426.299 426.828 438.362 443.508 439.427 443.508C440.423 443.508 438.506 427.751 437.152 417.513H464.058C471.271 417.513 477.116 411.643 477.116 404.407V317.952C477.116 310.715 471.271 304.846 464.058 304.846Z" fill="#9BDACB"/>
<path d="M368.957 335.869H321.355C321.154 335.869 320.99 335.705 320.99 335.505V330.312C320.99 330.111 321.154 329.947 321.355 329.947H368.957C369.158 329.947 369.322 330.111 369.322 330.312V335.505C369.322 335.705 369.158 335.869 368.957 335.869Z" fill="white"/>
<path d="M350.11 355.217H321.361C321.157 355.217 320.998 355.053 320.998 354.852V349.66C320.998 349.459 321.157 349.295 321.361 349.295H350.11C350.311 349.295 350.472 349.459 350.472 349.66V354.852C350.472 355.053 350.311 355.217 350.11 355.217Z" fill="white"/>
<path d="M392.987 355.217H358.892C358.691 355.217 358.527 355.053 358.527 354.852V349.66C358.527 349.459 358.691 349.295 358.892 349.295H392.987C393.188 349.295 393.351 349.459 393.351 349.66V354.852C393.351 355.053 393.188 355.217 392.987 355.217Z" fill="white"/>
<path d="M458.628 355.217H403.208C403.008 355.217 402.844 355.053 402.844 354.852V349.66C402.844 349.459 403.008 349.295 403.208 349.295H458.628C458.829 349.295 458.993 349.459 458.993 349.66V354.852C458.993 355.053 458.829 355.217 458.628 355.217Z" fill="white"/>
<path d="M458.866 335.869H385.015C384.812 335.869 384.65 335.705 384.65 335.505V330.312C384.65 330.111 384.812 329.947 385.015 329.947H458.866C459.067 329.947 459.229 330.111 459.229 330.312V335.505C459.229 335.705 459.067 335.869 458.866 335.869Z" fill="white"/>
<path d="M458.865 393.096H321.355C321.152 393.096 320.99 392.932 320.99 392.731V387.538C320.99 387.338 321.152 387.174 321.355 387.174H458.865C459.065 387.174 459.229 387.338 459.229 387.538V392.731C459.229 392.932 459.065 393.096 458.865 393.096Z" fill="white"/>
<path d="M383.344 374.377H321.361C321.16 374.377 320.998 374.213 320.998 374.012V368.82C320.998 368.619 321.16 368.455 321.361 368.455H383.344C383.545 368.455 383.706 368.619 383.706 368.82V374.012C383.706 374.213 383.545 374.377 383.344 374.377Z" fill="white"/>
<path d="M458.868 374.377H396.312C396.111 374.377 395.947 374.213 395.947 374.012V368.82C395.947 368.619 396.111 368.455 396.312 368.455H458.868C459.068 368.455 459.232 368.619 459.232 368.82V374.012C459.232 374.213 459.068 374.377 458.868 374.377Z" fill="white"/>
<path d="M639.388 291.578H775.924C783.134 291.578 788.984 297.448 788.984 304.684V391.139C788.984 398.376 783.134 404.245 775.924 404.245H683.796C677.145 413.56 665.083 430.241 664.019 430.241C663.021 430.241 664.938 414.484 666.292 404.245H639.388C632.176 404.245 626.328 398.376 626.328 391.139V304.684C626.328 297.448 632.176 291.578 639.388 291.578Z" fill="#F47B60"/>
<path d="M773.785 336.018H739.767H707.406C707.183 336.018 707.002 336.199 707.002 336.419V341.536C707.002 341.758 707.183 341.939 707.406 341.939H739.767H741.424H773.785C774.008 341.939 774.187 341.758 774.187 341.536V336.419C774.187 336.199 774.008 336.018 773.785 336.018Z" fill="white"/>
<path d="M641.724 341.939H697.144C697.345 341.939 697.508 341.776 697.508 341.575V336.382C697.508 336.181 697.345 336.018 697.144 336.018H641.724C641.523 336.018 641.359 336.181 641.359 336.382V341.575C641.359 341.776 641.523 341.939 641.724 341.939Z" fill="white"/>
<path d="M641.494 322.602H715.345C715.548 322.602 715.707 322.438 715.707 322.237V317.044C715.707 316.843 715.548 316.68 715.345 316.68H641.494C641.293 316.68 641.129 316.843 641.129 317.044V322.237C641.129 322.438 641.293 322.602 641.494 322.602Z" fill="white"/>
<path d="M728.693 322.602H773.823C774.026 322.602 774.188 322.438 774.188 322.237V317.044C774.188 316.843 774.026 316.68 773.823 316.68H728.693C728.492 316.68 728.328 316.843 728.328 317.044V322.237C728.328 322.438 728.492 322.602 728.693 322.602Z" fill="white"/>
<path d="M641.129 379.822H774.193V373.9H641.129V379.822Z" fill="white"/>
<path d="M710.906 361.104H774.187V355.182H710.906V361.104Z" fill="white"/>
<path d="M641.359 361.104H704.64V355.182H641.359V361.104Z" fill="white"/>
<path d="M219.684 886.744C219.684 886.744 218.739 902.411 218.732 902.442C218.385 904.431 217.014 909.347 217.014 911.155C217.014 917.948 249.27 905.388 242.042 902.376C241.387 902.106 237.959 900.044 237.745 897.732C237.413 894.171 236.572 886.965 236.572 886.965L219.684 886.744Z" fill="#F7A896"/>
<path d="M240.692 901.041C240.692 901.041 233.119 903.12 229.241 903.638C225.361 904.157 220.247 899.784 217.504 900.965C214.484 902.266 214.602 913.973 214.602 913.973C214.602 913.973 255.215 917.305 266.635 913.859C271.157 912.492 256.173 905.88 240.692 901.041Z" fill="#BA5F4B"/>
<path d="M274.438 886.743C274.438 886.743 273.493 902.41 273.486 902.441C273.139 904.43 271.768 909.345 271.768 911.153C271.768 917.946 304.024 905.386 296.796 902.375C296.141 902.104 291.256 901.24 291.042 898.927C290.71 895.366 290.092 884.35 290.092 884.35L274.438 886.743Z" fill="#F7A896"/>
<path d="M295.444 901.041C295.444 901.041 287.871 903.12 283.993 903.638C280.113 904.157 274.999 899.784 272.256 900.965C269.236 902.266 269.354 913.973 269.354 913.973C269.354 913.973 309.967 917.305 321.387 913.859C325.909 912.492 310.925 905.88 295.444 901.041Z" fill="#BA5F4B"/>
<path d="M170.53 718.678L247.635 719.01C247.635 719.01 282.464 718.097 287.968 730.142C293.475 742.186 292.165 895.149 292.165 895.149C292.165 895.149 273.576 897.914 272.624 896.892L251.69 805.316C249.452 797.554 248.69 789.437 249.445 781.395L251.443 760.096L219.631 761.721C219.631 761.721 183.562 761.146 171.67 749.185C159.778 737.221 170.53 718.678 170.53 718.678Z" fill="#469482"/>
<path d="M118.263 710.182L201.168 715.269C201.168 715.269 236.848 718.169 242.352 730.212C247.859 742.256 238.839 896.532 238.839 896.532C238.839 896.532 218.143 897.809 218.184 896.901C218.235 895.822 209.69 826.233 204.952 804.196C203.447 797.202 202.921 790.033 203.386 782.895L206.38 758.199C206.38 758.199 129.373 757.76 125.552 753.915C113.66 741.953 118.263 710.182 118.263 710.182Z" fill="#59C2A9"/>
<path d="M195.012 583.342C183.508 579.725 161.908 577.674 161.908 577.674C161.908 577.674 148.381 575.328 143.967 576.237C137.469 577.571 125.294 578.089 123.872 606.21C122.853 626.333 120.045 676.116 117.4 709.727L199.862 715.59C196.664 663.803 205.903 586.768 195.012 583.342Z" fill="#F47B60"/>
<path d="M173.998 553.792L160.401 577.271C160.401 577.271 169.692 594.928 178.911 595.64C186.647 596.239 185.738 584.755 185.738 584.755C185.738 584.755 187.354 569.98 191.25 563.446C195.148 556.915 173.998 553.792 173.998 553.792Z" fill="#F7A896"/>
<path d="M174.922 563.363C177.746 566.543 182.495 570.762 187.692 573.503C188.559 569.807 189.727 565.998 191.251 563.444C193.049 560.43 189.51 558.144 185.18 556.553C179.368 554.839 173.998 553.79 173.998 553.79L171.385 558.302C171.974 559.926 173.981 562.304 174.922 563.363Z" fill="#F47B60"/>
<path d="M182.762 513.83C182.247 513.422 168 542.545 173.005 553.527C178.012 564.508 192.288 572.306 199.933 567.511C208.391 562.206 218.985 529.338 209.735 516.678C200.483 504.016 182.762 513.83 182.762 513.83Z" fill="#F7A896"/>
<path d="M210.544 498.828C200.54 497.622 192.568 501.329 189.526 503.028C185.107 502.117 178.542 502.545 169.284 510.445C157.9 520.158 158.843 535.429 165.192 544.879C171.539 554.329 168.884 561.919 168.884 561.919L171.546 558.422C173.538 555.764 174.999 552.728 175.709 549.479C176.136 547.531 176.408 545.36 176.187 543.427C175.599 538.332 183.045 537.555 186.079 534.485C188.416 532.124 190.634 525.678 194.389 521.737L198.205 519.043C198.205 519.043 205.838 516.345 211.33 519.648C216.819 522.953 223.379 500.374 210.544 498.828Z" fill="#F7CE85"/>
<path d="M183.877 539.778C182.702 543.52 179.997 546.002 177.838 545.324C175.679 544.646 174.879 541.064 176.054 537.325C177.23 533.584 179.933 531.101 182.092 531.779C184.254 532.455 185.051 536.037 183.877 539.778Z" fill="#F7A896"/>
<path d="M193.602 554.228L205.554 557.527C205.554 557.527 204.025 561.992 198.726 560.692C192.266 559.109 193.602 554.228 193.602 554.228Z" fill="white"/>
<path d="M291.283 682.577C292.021 681.717 290.7 679.914 289.71 678.562C288.612 677.062 281.344 672.694 280.085 672.118C278.825 671.541 267.367 671.622 262.874 672.458C258.378 673.292 255.619 672.333 255.619 672.333C254.521 671.952 252.864 671.417 251.583 670.967L251.53 671.099L189.878 650.478C189.878 650.478 171.825 627.214 155.153 600.708C148.266 605.694 144.563 619.79 137.643 624.71L176.96 669.218C178.2 671.103 239.008 679.478 247.545 680.646L247.54 680.647C247.616 680.657 247.692 680.666 247.766 680.675C248.289 680.746 248.569 680.784 248.569 680.784L248.569 680.777C258.362 682.017 268.164 684.039 269.094 684.14C272.141 684.469 278.13 682.036 279.484 681.74C280.836 681.446 283.4 682.165 285.045 683.224C286.693 684.282 291.547 686.924 292.463 686.583C293.383 686.242 291.283 682.577 291.283 682.577Z" fill="#F7A896"/>
<path d="M151.637 647.182C151.637 647.182 130.832 618.987 125.88 608.013C120.927 597.042 127.112 580.109 137.673 578.41C148.234 576.711 177.098 627.031 177.098 627.031L151.637 647.182Z" fill="#BA5F4B"/>
<path d="M115.326 470.903C115.326 475.423 121.242 479.089 128.541 479.089C135.841 479.089 141.761 475.423 141.761 470.903C141.761 466.383 135.841 462.717 128.541 462.717C121.242 462.717 115.326 466.383 115.326 470.903Z" fill="#B1B2B8"/>
<path d="M128.548 296.963C161.461 296.963 188.142 323.646 188.142 356.56C188.142 374.542 180.177 390.661 167.582 401.588C167.536 401.636 158.271 411.652 156.742 422.14L156.467 428.559C156.375 430.664 155.55 432.669 154.133 434.228C154.006 434.366 153.875 434.501 153.742 434.63H103.351C103.22 434.501 103.089 434.366 102.963 434.228C101.545 432.669 100.72 430.664 100.628 428.559L100.351 422.14C98.8247 411.652 89.5597 401.636 89.5138 401.588C76.9189 390.661 68.9531 374.542 68.9531 356.56C68.9531 323.646 95.6345 296.963 128.548 296.963Z" fill="#F7CE85"/>
<path d="M126.152 471.811H130.947C143.608 471.811 153.87 461.548 153.87 448.888V434.629H103.229V448.888C103.229 461.548 113.491 471.811 126.152 471.811Z" fill="#5C5568"/>
<path d="M113.61 402.121C146.541 402.121 173.238 375.425 173.238 342.494C173.238 329.124 168.836 316.782 161.405 306.836C177.515 317.503 188.143 335.788 188.143 356.559C188.143 374.54 180.177 390.664 167.582 401.591C167.539 401.637 158.274 411.651 156.745 422.138L156.468 428.558C156.376 430.663 155.551 432.67 154.134 434.229C154.009 434.367 153.878 434.5 153.745 434.629H103.354C103.221 434.5 103.09 434.367 102.965 434.229C101.548 432.67 100.723 430.663 100.631 428.558L100.354 422.138C98.8253 411.651 89.5603 401.637 89.5166 401.591C86.3308 398.826 83.4419 395.728 80.9023 392.352C90.294 398.527 101.531 402.121 113.61 402.121Z" fill="#EBB45C"/>
<path d="M128.967 385.454L140.811 333.806L151.203 363.847L154.251 362.793L140.18 322.121L128.096 374.82L115.724 344.612L104.26 363.963L107.035 365.607L115.195 351.831L128.967 385.454Z" fill="white"/>
<path d="M143.892 442.388L144.176 442.416C145.672 442.572 147.012 441.484 147.165 439.988L155.448 360.023C155.603 358.527 154.515 357.186 153.02 357.031L152.733 357.003C151.238 356.848 149.899 357.933 149.744 359.431L141.464 439.399C141.309 440.895 142.396 442.233 143.892 442.388Z" fill="#5C5568"/>
<path d="M113.027 442.4C111.453 442.564 110.044 441.418 109.881 439.843L101.629 360.16C101.465 358.585 102.609 357.179 104.186 357.015C105.76 356.854 107.169 357.996 107.332 359.57L115.584 439.256C115.746 440.83 114.602 442.237 113.027 442.4Z" fill="#5C5568"/>
<path d="M103.596 440.232H153.465C154.865 440.232 156.002 439.099 156.002 437.697V437.164C156.002 435.762 154.865 434.629 153.465 434.629H103.596C102.194 434.629 101.059 435.762 101.059 437.164V437.697C101.059 439.099 102.194 440.232 103.596 440.232Z" fill="#B1B2B8"/>
<path d="M103.596 451.468H153.465C154.865 451.468 156.002 450.335 156.002 448.933V448.4C156.002 446.999 154.865 445.865 153.465 445.865H103.596C102.194 445.865 101.059 446.999 101.059 448.4V448.933C101.059 450.335 102.194 451.468 103.596 451.468Z" fill="#B1B2B8"/>
<path d="M106.512 464.045H150.542C151.944 464.045 153.079 462.911 153.079 461.509V460.977C153.079 459.575 151.944 458.441 150.542 458.441H106.512C105.11 458.441 103.975 459.575 103.975 460.977V461.509C103.975 462.911 105.11 464.045 106.512 464.045Z" fill="#B1B2B8"/>
<path d="M895.742 320.939C898.042 324.188 900.457 327.353 902.691 330.643C903.1 331.243 903.214 332.429 902.902 333.072C900.882 337.215 898.624 341.244 896.633 345.399C896.051 346.609 895.52 347.16 894.143 347.175C889.296 347.235 884.449 347.425 879.602 347.57C878.817 347.594 878.032 347.642 876.666 347.709C876.241 354.905 875.82 362.02 875.389 369.314C881.195 370.279 886.458 371.241 891.752 371.987C893.619 372.249 894.481 372.803 894.987 374.816C896.022 378.929 897.63 382.899 898.881 386.964C899.074 387.587 898.867 388.621 898.436 389.102C895.158 392.769 891.884 396.452 888.39 399.91C886.714 401.571 886.763 402.822 888.211 404.434C888.767 405.053 889.098 405.875 889.533 406.602C892.008 409.443 894.482 412.284 896.957 415.122C897.317 415.348 897.727 415.518 898.031 415.801C901.236 418.779 900.518 418.472 903.86 416.122C907.931 413.26 911.954 410.33 915.466 407.81C921.061 410.541 926.294 413.092 931.695 415.728C931.875 421.672 932.062 427.881 932.251 434.131C939.429 435.789 946.519 436.007 953.783 435.409C954.72 429.697 955.65 424.127 956.537 418.554C956.697 417.553 956.964 417.015 958.13 416.678C962.698 415.356 967.239 413.917 971.705 412.287C972.992 411.816 973.617 412.046 974.495 412.878C978.119 416.315 981.822 419.668 985.459 423.089C986.364 423.939 987.07 424.168 988.261 423.419C993.594 420.058 998.009 415.711 1002.08 410.959C1002.88 410.018 1002.53 409.35 1001.91 408.505C999.039 404.595 996.263 400.616 993.363 396.727C992.526 395.607 992.417 394.874 993.174 393.535C995.79 388.903 998.137 384.118 1000.78 379.012C1006.19 378.85 1012.31 378.667 1018.44 378.482C1020.16 371.176 1020.73 364.025 1019.96 356.719C1013.72 355.726 1007.65 354.762 1002.15 353.886C1000.36 349.019 998.801 344.453 996.958 340.005C996.26 338.325 996.407 337.31 997.666 336.035C1001.02 332.634 1004.25 329.1 1007.49 325.589C1008.13 324.896 1009.14 324.188 1008.12 323.031C1003.95 318.322 999.791 313.612 995.624 308.906C994.737 307.906 993.896 308.014 992.837 308.803C988.884 311.739 984.803 314.503 980.903 317.506C979.399 318.662 978.373 318.341 976.884 317.539C973.209 315.559 969.476 313.643 965.611 312.084C963.944 311.411 963.496 310.742 963.491 309.033C963.479 303.545 963.252 298.055 963.111 292.682C958.946 291.114 946.262 290.386 941.214 291.384C940.358 296.899 939.432 302.47 938.663 308.058C938.473 309.457 937.883 309.865 936.606 310.267C932.484 311.57 928.458 313.163 924.349 314.508C923.658 314.733 922.488 314.563 921.972 314.097C918.695 311.14 915.519 308.068 912.344 304.998C910.568 303.282 909.86 302.585 908.84 302.822L893.725 315.992C893.197 317.33 893.881 318.312 895.742 320.939ZM926.569 339.182C940.079 327.41 960.576 328.818 972.349 342.328C984.121 355.836 982.711 376.333 969.2 388.105C955.692 399.878 935.198 398.471 923.424 384.961C911.653 371.452 913.059 350.956 926.569 339.182Z" fill="#A0C4F9"/>
<path d="M1058.67 370.854C1059.15 372.542 1059.7 374.215 1060.15 375.912C1060.23 376.223 1060.11 376.733 1059.88 376.954C1058.44 378.387 1056.91 379.736 1055.47 381.176C1055.06 381.596 1054.75 381.747 1054.18 381.554C1052.15 380.869 1050.1 380.241 1048.06 379.596C1047.73 379.49 1047.39 379.399 1046.82 379.227C1045.59 382.162 1044.38 385.066 1043.13 388.043C1045.41 389.292 1047.46 390.46 1049.56 391.542C1050.3 391.925 1050.58 392.282 1050.5 393.194C1050.33 395.059 1050.42 396.947 1050.35 398.822C1050.34 399.111 1050.1 399.512 1049.85 399.65C1047.95 400.7 1046.05 401.756 1044.09 402.686C1043.15 403.136 1042.98 403.663 1043.35 404.545C1043.49 404.885 1043.51 405.276 1043.59 405.643C1044.2 407.187 1044.82 408.73 1045.44 410.274C1045.55 410.421 1045.7 410.554 1045.78 410.717C1046.69 412.423 1046.43 412.191 1048.17 411.7C1050.28 411.101 1052.38 410.468 1054.22 409.929C1056.15 411.883 1057.96 413.709 1059.82 415.594C1059.03 418.097 1058.2 420.713 1057.37 423.346C1060.12 425.083 1063.04 426.208 1066.15 427.018C1067.38 424.776 1068.58 422.591 1069.76 420.398C1069.97 420.004 1070.16 419.817 1070.7 419.848C1072.79 419.965 1074.9 420.027 1076.99 419.998C1077.6 419.99 1077.83 420.178 1078.07 420.653C1079.08 422.613 1080.13 424.55 1081.15 426.507C1081.41 426.993 1081.67 427.191 1082.27 427.052C1084.98 426.43 1087.46 425.264 1089.84 423.877C1090.32 423.602 1090.27 423.273 1090.14 422.83C1089.51 420.782 1088.93 418.72 1088.29 416.674C1088.1 416.087 1088.17 415.765 1088.68 415.317C1090.44 413.769 1092.12 412.117 1093.97 410.377C1096.24 411.097 1098.82 411.915 1101.4 412.731C1103.18 409.938 1104.46 407.043 1105.21 403.885C1102.75 402.561 1100.37 401.273 1098.2 400.106C1098.16 397.816 1098.18 395.686 1098.06 393.565C1098.02 392.761 1098.23 392.362 1098.93 392.013C1100.83 391.087 1102.69 390.083 1104.55 389.093C1104.92 388.897 1105.45 388.75 1105.19 388.119C1104.14 385.55 1103.09 382.98 1102.04 380.412C1101.82 379.868 1101.45 379.789 1100.9 379.962C1098.82 380.609 1096.72 381.166 1094.66 381.848C1093.86 382.109 1093.48 381.826 1092.98 381.276C1091.73 379.913 1090.45 378.571 1089.07 377.359C1088.48 376.835 1088.39 376.489 1088.64 375.776C1089.43 373.487 1090.14 371.168 1090.86 368.908C1089.36 367.646 1084.18 365.495 1081.93 365.174C1080.77 367.347 1079.57 369.532 1078.43 371.75C1078.15 372.303 1077.84 372.388 1077.25 372.37C1075.35 372.31 1073.44 372.387 1071.53 372.347C1071.21 372.342 1070.75 372.1 1070.6 371.83C1069.66 370.119 1068.79 368.376 1067.91 366.634C1067.42 365.659 1067.23 365.265 1066.77 365.217L1058.55 368.499C1058.13 368.982 1058.28 369.488 1058.67 370.854ZM1068.85 382.954C1076.2 380.019 1084.53 383.595 1087.47 390.942C1090.4 398.288 1086.83 406.623 1079.48 409.557C1072.13 412.493 1063.8 408.915 1060.86 401.57C1057.93 394.222 1061.5 385.89 1068.85 382.954Z" fill="#A0C4F9"/>
<path d="M879.725 781.012H887.804V899.127H879.725V781.012Z" fill="#1F4163"/>
<path d="M788.377 868.916C788.377 868.916 786.61 887.352 787.772 893.364C787.927 894.167 788.268 895.187 788.667 896.311C789.864 899.681 786.589 909.974 786.589 909.974L742.635 910.129C740.242 910.138 741.845 908.686 743.792 907.356C746.98 905.177 749.546 903.742 759.698 899.205C760.359 898.91 762.774 897.484 763.646 896.993C765.851 895.741 768.08 893.759 770.002 891.77C773.199 888.455 773.684 872.209 773.684 872.209L788.377 868.916Z" fill="#F7A896"/>
<path d="M763.655 896.978C775.239 899.961 783.854 898.129 788.684 896.336C789.88 899.701 791.935 912.346 790.592 912.346C779.572 912.346 770.44 913.075 738.861 912.599C737.73 912.582 737.867 908.87 738.605 908.051C740.642 905.787 762.782 897.474 763.655 896.978Z" fill="#59C2A9"/>
<path d="M741.49 840.953C741.49 840.953 732.825 857.556 731.616 863.567C731.455 864.373 731.386 865.438 731.328 866.624C731.16 870.182 724.188 878.664 724.188 878.664L683.201 863.715C680.969 862.9 683.011 862.099 685.333 861.525C689.131 860.587 692.068 860.128 703.249 859.378C703.977 859.329 706.77 858.828 707.769 858.667C710.3 858.258 713.128 857.173 715.674 855.973C719.914 853.979 726.554 838.981 726.554 838.981L741.49 840.953Z" fill="#F7A896"/>
<path d="M707.511 859.105C717.42 865.481 726.184 866.39 731.36 866.172C731.332 869.727 729.543 881.198 728.276 880.786C717.871 877.408 708.38 876.441 678.734 866.312C677.671 865.948 679.079 862.474 680.056 861.922C682.758 860.403 706.517 859.308 707.511 859.105Z" fill="#59C2A9"/>
<path d="M875.337 701.097V710.573L782.164 729.304L759.037 795.707L771.925 787.298L768.948 889.554L788.546 889.681C788.546 889.681 822.505 803.892 811.365 760.744L914.487 762.25C914.487 762.25 961.225 745 937.109 692.982L875.337 701.097Z" fill="#F7CE85"/>
<path d="M875.313 710.489C875.313 710.489 778.697 713.312 771.949 718.52C765.203 723.728 716.567 850.436 716.567 850.436L739.209 857.945C739.209 857.945 782.268 785.708 784.519 780.572C786.768 775.438 803.229 737.904 809.748 733.966C816.268 730.028 875.313 710.489 875.313 710.489Z" fill="#EBB45C"/>
<path d="M926.53 904.391H846.279C842.582 904.391 839.586 907.387 839.586 911.083C839.586 911.73 840.11 912.256 840.756 912.256H932.052C932.699 912.256 933.223 911.73 933.223 911.083C933.223 907.387 930.227 904.391 926.53 904.391Z" fill="#1F4163"/>
<path d="M889.123 899.117H879.292C876.384 899.117 874.025 901.475 874.025 904.384C874.025 907.293 876.384 909.646 879.292 909.646H889.123C892.031 909.646 894.39 907.293 894.39 904.384C894.39 901.475 892.031 899.117 889.123 899.117Z" fill="#1F4163"/>
<path d="M906.44 576.512C906.44 576.512 925.764 572.134 934.839 579.294C943.913 586.454 934.987 652.622 935.303 663.54C935.617 674.46 942.559 705.138 942.559 705.138C942.559 705.138 883.952 717.094 874.139 700.963C874.139 700.963 869.732 638.587 869.907 630.725C870.085 622.86 877.918 590.499 880.236 586.992C882.554 583.484 906.44 576.512 906.44 576.512Z" fill="#59C2A9"/>
<path d="M903.776 546.266C903.776 546.266 903.924 546.839 904.185 547.811C905.437 552.472 910.059 567.894 912.685 572.028C915.858 577.021 904.946 594.612 893.023 593.511C889.472 593.182 894.779 578 894.345 576.47C893.516 573.541 892.388 569.547 891.237 565.45C890.587 563.14 889.926 560.796 889.308 558.595C887.549 552.336 886.111 547.219 886.111 547.219L903.776 546.266Z" fill="#F7A896"/>
<path d="M904.185 547.809C903.924 546.837 903.776 546.266 903.776 546.266L886.111 547.219C886.111 547.219 887.549 552.336 889.308 558.595C889.923 560.785 890.58 563.115 891.226 565.412C893.915 564.799 896.656 563.253 899.311 560.538C902.206 557.576 903.986 554.153 904.941 550.57C904.636 549.475 904.38 548.532 904.185 547.809Z" fill="#F47B60"/>
<path d="M888.765 507.21C888.765 507.21 896.999 505.597 902.738 511.908C908.475 518.222 915.728 538.568 903.683 550.892C891.635 563.217 877.841 551.432 874.876 538.015C871.912 524.598 869.877 508.206 888.765 507.21Z" fill="#F7A896"/>
<path d="M871.031 538.115C872.811 540.989 875.533 542.448 877.112 541.366C878.689 540.287 878.529 537.082 876.747 534.206C874.967 531.333 872.242 529.878 870.664 530.958C869.085 532.037 869.252 535.242 871.031 538.115Z" fill="#F7A896"/>
<path d="M887.651 505.063C887.651 505.063 900.312 523.958 908.325 524.246C916.338 524.534 918.212 534.958 918.212 534.958C918.212 534.958 913.462 510.973 905.231 506.926C897.003 502.876 887.651 505.063 887.651 505.063Z" fill="#F7CE85"/>
<path d="M906.639 529.377C906.269 532.94 907.823 536.057 910.108 536.341C912.393 536.623 914.542 533.967 914.912 530.405C915.282 526.843 913.728 523.726 911.443 523.442C909.16 523.157 907.009 525.815 906.639 529.377Z" fill="#F7A896"/>
<path d="M883.071 544.954L892.74 543.688C892.74 543.688 892.999 547.391 888.764 548.071C883.599 548.901 883.071 544.954 883.071 544.954Z" fill="white"/>
<path d="M925.586 755.17C925.586 755.17 829.497 756.814 819.48 755.17C809.462 753.525 805.126 766.083 808.115 772.662C811.106 779.242 819.33 781.783 831.442 782.382C843.552 782.98 944.325 785.821 947.166 783.128C949.485 780.932 980.034 676.488 991.148 638.295C993.371 630.661 988.988 622.684 981.361 620.444C973.767 618.217 965.799 622.525 963.504 630.098L925.586 755.17Z" fill="#F47B60"/>
<path d="M156.1 781.176H147.973V899.985H156.1V781.176Z" fill="#1F4163"/>
<path d="M110.982 905.285H191.705C195.424 905.285 198.44 908.299 198.44 912.017C198.44 912.668 197.909 913.194 197.258 913.194H105.425C104.774 913.194 104.248 912.668 104.248 912.017C104.248 908.299 107.264 905.285 110.982 905.285Z" fill="#1F4163"/>
<path d="M147.336 899.986H157.226C160.15 899.986 162.521 902.358 162.521 905.284C162.521 908.21 160.15 910.581 157.226 910.581H147.336C144.41 910.581 142.039 908.21 142.039 905.284C142.039 902.358 144.41 899.986 147.336 899.986Z" fill="#1F4163"/>
<path d="M204.342 767.5L198.787 744.378C194.904 728.209 180.584 716.443 163.965 715.771L93.6139 712.928L91.4434 705.766L164.251 708.707C184.012 709.508 201.04 723.496 205.661 742.727L211.563 767.297C209.565 767.382 207.126 767.45 204.342 767.5Z" fill="#3F5B8F"/>
<path d="M109.976 755.186C109.976 755.186 206.633 756.841 216.708 755.186C226.785 753.531 231.146 766.168 228.139 772.784C225.13 779.402 216.859 781.959 204.676 782.56C192.494 783.162 91.1272 786.019 88.2689 783.313C85.9346 781.101 55.2049 676.044 44.0249 637.626C41.7889 629.946 46.1976 621.922 53.8707 619.67C61.509 617.43 69.5293 621.762 71.8374 629.381L109.976 755.186Z" fill="#F7CE85"/>
<path d="M415.251 610.023H334.618C332.484 610.023 330.561 611.314 329.753 613.288L304.928 673.841H260.472C259.229 673.841 258.223 674.848 258.223 676.09C258.223 677.333 259.229 678.339 260.472 678.339H386.991C390.47 678.339 393.623 676.298 395.047 673.125L420.047 617.437C421.608 613.958 419.064 610.023 415.251 610.023Z" fill="#8CB5F2"/>
<path d="M371.836 645.284C371.292 648.005 368.918 649.822 366.536 649.348C364.154 648.87 362.662 646.28 363.208 643.559C363.752 640.84 366.126 639.022 368.508 639.498C370.888 639.974 372.379 642.563 371.836 645.284Z" fill="white"/>
<path d="M687.51 610.023H768.142C770.275 610.023 772.199 611.314 773.007 613.288L797.832 673.841H842.288C843.53 673.841 844.539 674.848 844.539 676.09C844.539 677.333 843.53 678.339 842.288 678.339H715.768C712.29 678.339 709.134 676.298 707.711 673.125L682.711 617.437C681.149 613.958 683.698 610.023 687.51 610.023Z" fill="#6B99DC"/>
<path d="M730.933 645.284C731.477 648.005 733.848 649.822 736.23 649.348C738.611 648.87 740.1 646.28 739.556 643.559C739.012 640.84 736.639 639.022 734.256 639.498C731.876 639.974 730.387 642.563 730.933 645.284Z" fill="white"/>
<path d="M247.06 691.855H843.994C845.088 691.855 845.972 690.968 845.972 689.876V680.315C845.972 679.221 845.088 678.334 843.994 678.334H247.06C245.969 678.334 245.082 679.221 245.082 680.315V689.876C245.082 690.968 245.969 691.855 247.06 691.855Z" fill="#1F4163"/>
<path d="M815.979 914.268H825.6L804.871 691.855H795.248L815.979 914.268Z" fill="#1F4163"/>
<path d="M734.226 914.268H724.605L745.334 691.855H754.957L734.226 914.268Z" fill="#1F4163"/>
<path d="M351.407 914.268H361.028L340.299 691.855H330.676L351.407 914.268Z" fill="#1F4163"/>
<path d="M656.422 573.051C655.88 574.804 655.575 575.382 654.904 576.554C650.578 584.11 640.66 594.829 640.66 594.829L633.434 577.744C633.434 577.744 634.755 572.443 637.016 564.872C644.25 566.897 651.152 568.117 656.422 573.051Z" fill="#F8A897"/>
<path d="M613.535 557.592C613.535 557.592 655.183 576.404 656.545 576.081C657.422 575.874 674.243 548.812 674.871 523.096C675.161 511.218 663.074 496.712 649.262 499.294C642.307 500.596 642.382 502.526 631.867 517.242C621.352 531.96 613.535 557.592 613.535 557.592Z" fill="#E6B464"/>
<path d="M575.989 881.51C575.989 881.51 576.985 897.994 576.991 898.029C577.356 900.121 578.795 905.291 578.795 907.193C578.795 914.342 544.855 901.127 552.463 897.959C553.151 897.673 556.758 895.504 556.985 893.072C557.332 889.323 558.219 881.741 558.219 881.741L575.989 881.51Z" fill="#F7A896"/>
<path d="M551.355 897.372C551.355 897.372 559.465 899.815 563.621 900.424C567.774 901.036 573.255 895.893 576.194 897.282C579.428 898.811 579.299 912.572 579.299 912.572C579.299 912.572 535.797 916.489 523.565 912.436C518.72 910.831 534.771 903.062 551.355 897.372Z" fill="#DE5A44"/>
<path d="M645.418 881.51C645.418 881.51 646.414 897.994 646.421 898.029C646.785 900.121 648.229 905.291 648.229 907.193C648.229 914.342 614.287 901.127 621.895 897.959C622.582 897.673 627.26 893.884 627.485 891.454C627.834 887.705 627.651 881.741 627.651 881.741L645.418 881.51Z" fill="#F7A896"/>
<path d="M622.039 897.372C622.039 897.372 630.151 899.815 634.307 900.424C638.46 901.036 643.939 895.893 646.878 897.282C650.112 898.811 650.24 912.572 650.24 912.572C650.24 912.572 606.542 917.14 594.251 912.436C589.48 910.611 605.455 903.062 622.039 897.372Z" fill="#DE5A44"/>
<path d="M636.212 582.188L608.033 539.14C607.922 538.769 607.683 538.009 607.315 536.847C605.977 532.634 603.196 523.87 600.816 515.164L600.791 515.071C600.055 512.032 598.453 506.72 596.9 501.578C595.175 495.862 593.033 488.773 592.996 487.579C593.081 487.377 593.235 487.018 593.442 486.539C594.653 483.74 596.407 477.03 597.05 474.108C597.46 472.247 597.975 467.703 595.748 467.613C592.244 467.471 593.729 472.09 592 474.867C591.483 472.943 590.435 469.127 589.954 465.287L589.731 456.368C589.645 455.692 590.554 450.814 588.098 450.714L587.982 450.714C585.767 450.786 585.607 456.005 584.332 464.793C584.082 463.765 583.842 462.529 583.669 461.395C583.72 460.791 583.382 458.122 583.107 456.708C583.651 454.267 583.548 450.378 580.915 450.638C579.596 450.769 579.485 456.186 579.485 456.186C579.47 456.929 579.315 462.655 579.23 463.783C579.037 461.852 578.319 453.621 576.265 453.539C574.561 453.47 574.335 455.668 574.302 457.413C574.28 458.445 574.995 467.362 575.012 468.397C574.263 467.018 573.628 459.16 572.834 459.128C569.511 458.994 570.262 470.158 571.364 473.105C571.468 473.406 571.567 473.992 571.681 474.672C572.016 476.67 572.576 480.012 574.194 483.058C576.136 486.709 578.785 492.498 579.188 493.387C579.437 495.171 580.179 501.585 581.112 509.654C581.512 513.105 581.949 516.891 582.407 520.812L582.44 520.807C582.52 521.656 583.035 524.362 584.992 534.516C587.667 548.412 587.977 549.019 588.111 549.28C589.413 551.822 619.85 596.855 621.145 598.769L621.912 599.899L636.212 582.188Z" fill="#F7A896"/>
<path d="M584.595 482.354C584.595 482.354 587.267 476.255 591.584 476.416C591.584 476.416 589.208 475.451 587.073 477.003C584.939 478.556 584.595 482.354 584.595 482.354Z" fill="#F47B60"/>
<path d="M646.067 472.558L648.927 497.029C648.927 497.029 633.803 508.202 625.361 505.374C618.28 503.003 623.572 493.833 623.572 493.833C623.572 493.833 627.915 481.007 627.018 474.155C626.121 467.305 646.067 472.558 646.067 472.558Z" fill="#F7A896"/>
<path d="M643.013 479.798C639.27 481.384 631.916 483.456 626.242 483.801C626.921 480.419 627.374 476.832 627.023 474.156C626.611 470.994 630.636 470.412 635.091 470.701C640.905 471.436 646.07 472.559 646.07 472.559L646.62 477.26C645.463 478.386 644.26 479.269 643.013 479.798Z" fill="#FE8D66"/>
<path d="M665.697 445.257C666.301 445.284 658.809 472.191 648.721 476.465C638.635 480.736 623.969 477.705 621.496 470.277C618.76 462.061 631.055 434.799 645.119 431.842C659.181 428.883 665.697 445.257 665.697 445.257Z" fill="#F7A896"/>
<path d="M655.252 419.839C662.975 424.718 666.328 431.628 667.438 434.446C671.076 436.357 675.414 440.348 677.155 450.698C679.296 463.423 669.478 472.768 659.371 475.291C649.265 477.813 647.455 484.362 647.455 484.362L646.61 477.203C646.61 477.203 649.081 471.101 652.547 468.135C656.015 465.17 651.275 460.455 650.99 456.752C650.773 453.9 653.081 448.473 652.818 443.799C652.818 443.799 647.607 435.166 642.219 432.866C633.035 428.946 645.345 413.577 655.252 419.839Z" fill="#1F4163"/>
<path d="M649.361 461.419C647.94 464.504 648.342 467.641 650.26 468.424C652.178 469.208 654.884 467.341 656.305 464.256C657.725 461.171 657.321 458.036 655.403 457.253C653.488 456.467 650.781 458.334 649.361 461.419Z" fill="#F7A896"/>
<path d="M607.046 583.715L550.218 570.165C550.218 570.165 557.959 554.168 560.295 554.338C562.634 554.508 602.475 575.458 602.475 575.458L605.271 582.266L607.046 583.715Z" fill="#F8A897"/>
<path d="M637.73 621.505C637.73 621.505 643.48 649.313 641.137 670.395C638.791 691.48 638.61 766.38 638.61 766.38L647.554 886.217L626.332 886.683C626.332 886.683 601.164 766.899 601.633 769.974C602.1 773.048 593.191 685.637 593.191 685.637L623.196 618.869L637.73 621.505Z" fill="#6B99DC"/>
<path d="M632.105 620.189C632.105 620.189 635.854 645.226 631.168 656.207C626.48 667.188 590.955 774.938 590.488 783.722C590.019 792.507 578.205 889.611 578.205 889.611L553.529 888.917L548.188 780.958L559.367 645.269L570.222 610.963L632.105 620.189Z" fill="#8CB5F2"/>
<path d="M646.125 495.984C646.125 495.984 640.037 499.977 634.362 499.515C628.685 499.052 620.66 493.813 620.66 493.813L621.776 490.033C621.776 490.033 636.458 487.893 636.83 488.125C637.199 488.356 646.125 495.984 646.125 495.984Z" fill="#F7A896"/>
<path d="M582.111 555.109C582.111 555.109 558.865 574.06 549.3 569.841C539.737 565.624 536.543 553.346 561.774 537.558C584.354 523.428 582.111 555.109 582.111 555.109Z" fill="#F8A897"/>
<path d="M567.793 579.986C571.343 562.42 595.782 507.99 597.836 497.921C598.835 493.025 611.499 493.139 623.551 493.993C636.28 494.894 648.91 496.73 648.91 496.73C648.91 496.73 660.154 498.782 665.035 503.52C669.916 508.258 671.01 521.138 663.446 545.423C657.476 564.596 650.307 575.055 646.604 589.031C645.823 593.728 645.143 598.363 644.253 603.774C642.615 624.742 643.41 652.492 643.41 652.492C643.41 652.492 581.782 664.144 559.154 644.415C559.154 644.415 564.156 597.984 567.793 579.986Z" fill="#F7CE85"/>
<path d="M552.496 541.266C552.496 541.266 576.027 561.822 577.435 561.862C578.338 561.887 612.497 538.204 620.787 518.192C625.371 507.13 616.763 494.37 606.529 494.125C599.435 493.955 596.232 495.694 581.841 507.158C567.451 518.619 552.496 541.266 552.496 541.266Z" fill="#E6B464"/>
<path d="M269.648 914.268H260.027L280.756 691.855H290.379L269.648 914.268Z" fill="#1F4163"/>
<path d="M985.262 916.194H79.1403C78.1817 916.194 77.4043 915.416 77.4043 914.458V914.095C77.4043 913.137 78.1817 912.359 79.1403 912.359H985.262C986.22 912.359 986.998 913.137 986.998 914.095V914.458C986.998 915.416 986.22 916.194 985.262 916.194Z" fill="#469482"/>
<path d="M820.786 638.811C820.152 636.853 829.623 635.497 830.171 633.543C830.716 631.59 818.299 631.164 817.893 629.429C817.142 626.233 831.521 629.061 831.269 627.569C831.018 626.077 816.335 622.431 817.987 619.915C819.637 617.402 832.817 625.285 833.259 623.563C833.702 621.842 820.344 617.336 820.67 613.549C820.843 611.525 842.522 624.149 845.092 623.102C847.662 622.056 842.59 612.409 844.646 611.039C846.705 609.671 852.061 630.579 853.446 631.304C854.823 632.026 884.106 649.609 894.598 652.535C895.958 649.029 905.577 630.493 906.781 627.177C912.608 631.522 919.454 632.593 925.48 636.569C920.809 647.563 904.994 674.54 901.879 675.864C892.395 679.898 856.746 648.977 849.612 643.661C842.471 638.341 838.283 639.921 833.413 638.184C828.544 636.444 821.42 640.766 820.786 638.811Z" fill="#F7A896"/>
<path d="M928.365 639.291C928.365 639.291 941.061 610.828 942.961 599.795C944.863 588.762 935.349 574.96 925.446 575.894C915.54 576.826 900.891 625.939 900.891 625.939L928.365 639.291Z" fill="#9BDACB"/>
<path d="M620.199 461.393L629.226 465.461C629.226 465.461 627.475 468.795 623.452 467.122C618.548 465.083 620.199 461.393 620.199 461.393Z" fill="white"/>
<path d="M1010.65 438.556C1010.43 441.504 1010.32 444.456 1010.04 447.396C1009.99 447.933 1009.49 448.664 1009.01 448.884C1005.89 450.299 1002.7 451.539 999.592 452.975C998.688 453.393 998.124 453.455 997.329 452.812C994.526 450.552 991.666 448.37 988.823 446.16C988.362 445.802 987.89 445.459 987.077 444.852C983.431 448.768 979.826 452.641 976.129 456.609C978.994 459.907 981.552 462.947 984.228 465.877C985.172 466.91 985.403 467.636 984.741 469.026C983.387 471.871 982.429 474.902 981.222 477.819C981.038 478.267 980.431 478.761 979.957 478.832C976.346 479.381 972.73 479.934 969.095 480.261C967.35 480.418 966.788 481.16 966.852 482.767C966.877 483.384 966.679 484.01 966.584 484.633C966.656 487.428 966.726 490.225 966.8 493.018C966.9 493.317 967.056 493.611 967.096 493.918C967.521 497.136 967.252 496.622 970.277 496.858C973.961 497.147 977.648 497.373 980.848 497.592C982.759 501.801 984.548 505.732 986.392 509.795C983.683 513.28 980.852 516.924 978.002 520.589C981.327 524.933 985.282 528.413 989.721 531.506C992.962 528.681 996.125 525.935 999.269 523.166C999.834 522.669 1000.24 522.487 1001.07 522.846C1004.31 524.251 1007.59 525.573 1010.91 526.752C1011.87 527.092 1012.12 527.52 1012.23 528.413C1012.67 532.092 1013.21 535.763 1013.67 539.441C1013.79 540.354 1014.08 540.82 1015.12 540.953C1019.76 541.556 1024.34 541.155 1028.92 540.36C1029.82 540.204 1029.94 539.657 1029.98 538.88C1030.19 535.284 1030.48 531.69 1030.66 528.092C1030.71 527.057 1031 526.588 1032.07 526.179C1035.76 524.767 1039.36 523.135 1043.29 521.466C1046.45 523.929 1050.05 526.724 1053.64 529.519C1058.08 526.151 1061.79 522.325 1064.8 517.781C1061.7 514.261 1058.69 510.841 1055.96 507.741C1057.23 504.105 1058.5 500.756 1059.55 497.339C1059.95 496.047 1060.51 495.534 1061.83 495.4C1065.36 495.041 1068.88 494.545 1072.39 494.069C1073.09 493.974 1074 494.049 1073.96 492.902C1073.8 488.239 1073.65 483.575 1073.49 478.911C1073.46 477.92 1072.93 477.589 1071.95 477.539C1068.3 477.349 1064.66 477 1061.01 476.872C1059.6 476.823 1059.16 476.154 1058.69 474.992C1057.53 472.12 1056.3 469.256 1054.82 466.536C1054.19 465.363 1054.25 464.767 1055.05 463.789C1057.64 460.641 1060.11 457.394 1062.57 454.253C1060.93 451.385 1054.01 444.97 1050.65 443.154C1047.55 445.905 1044.39 448.653 1041.31 451.489C1040.54 452.197 1040 452.15 1039.08 451.776C1036.11 450.574 1033.05 449.579 1030.06 448.405C1029.56 448.208 1028.97 447.56 1028.9 447.05C1028.42 443.807 1028.06 440.545 1027.69 437.287C1027.49 435.467 1027.41 434.732 1026.72 434.387L1011.84 434.774C1010.9 435.289 1010.83 436.173 1010.65 438.556ZM1019.66 463.575C1032.96 463.23 1044.02 473.73 1044.37 487.03C1044.71 500.326 1034.22 511.389 1020.92 511.733C1007.62 512.081 996.559 501.577 996.211 488.279C995.867 474.981 1006.36 463.923 1019.66 463.575Z" fill="#CCE2F9"/>
</g>
</svg>
