<svg width="1118" height="775" viewBox="0 0 1118 775" fill="none" xmlns="http://www.w3.org/2000/svg">
<mask id="mask0_4307_2345" style="mask-type:luminance" maskUnits="userSpaceOnUse" x="0" y="0" width="1118" height="775">
<path d="M1118 0.724609H0V774.078H1118V0.724609Z" fill="white"/>
</mask>
<g mask="url(#mask0_4307_2345)">
<path d="M1064.85 587.503C1048.71 685.924 1003.45 734.955 992.339 745.264C991.487 748.94 982.596 746.595 956.127 747.241C796.815 747.24 134.74 747.267 134.5 747.267C134.524 747.289 105.233 699.369 97.4503 637.952C79.8355 490.631 167.729 452.846 289.585 434.66C363.57 419.548 425.976 393.215 471.241 346.046C503.969 309.604 537.527 276.835 586.366 260.411C678.19 211.676 739.783 209.145 843.283 242.487C1018.65 294.338 1080.68 491.164 1064.85 587.503Z" fill="url(#paint0_linear_4307_2345)"/>
<mask id="mask1_4307_2345" style="mask-type:luminance" maskUnits="userSpaceOnUse" x="94" y="220" width="973" height="529">
<path d="M1064.31 588.234C1048.17 686.655 1002.96 735.629 991.849 745.938C990.997 749.614 982.105 747.269 955.636 747.915C796.325 747.914 134.254 747.941 134.014 747.941C134.038 747.963 104.73 700.037 96.9461 638.598C79.37 491.329 167.306 453.63 289.126 435.319C363.079 420.152 425.388 393.634 470.697 346.511C503.487 310.084 537.162 277.338 586.046 261.077C677.777 212.383 739.349 210.034 842.881 243.324C1018.25 295.067 1080.12 491.915 1064.31 588.234Z" fill="white"/>
</mask>
<g mask="url(#mask1_4307_2345)">
<path d="M804.947 33.3708C993.052 242.406 1110.68 452.424 952.781 552.068C579.937 787.355 668.275 865.696 668.275 865.696C668.275 865.696 700.638 919.074 757.799 841.739C814.96 764.403 849.012 744.679 1037.09 687.714C1225.17 630.748 1210.04 362.596 1210.04 362.596M598.505 906.045C598.505 906.045 627.926 672.357 386.674 669.836C145.421 667.314 7.56222 655.545 -32.7867 494.99C-73.1355 334.436 163.107 407.101 380.806 517.874C598.505 628.646 844.801 531.977 786.8 223.476C728.798 -85.0246 397.181 -121.591 430.805 -8.95015C464.429 103.69 801.51 313.841 644.897 462.836C496.995 603.546 -100.455 -8.95015 -100.455 -8.95015" stroke="white" stroke-width="5.88421" stroke-miterlimit="10"/>
<path d="M598.505 906.045C598.505 906.045 627.926 672.357 386.673 669.836C145.421 667.314 7.56222 655.545 -32.7867 494.99C-73.1355 334.436 163.107 407.101 380.806 517.874C598.505 628.646 844.801 531.977 786.8 223.476C728.798 -85.0246 397.181 -121.591 430.805 -8.95015C464.429 103.69 801.51 313.841 644.897 462.836C496.995 603.546 -100.455 -8.95015 -100.455 -8.95015" stroke="white" stroke-width="5.88421" stroke-miterlimit="10"/>
</g>
<path d="M63.7673 490.077C47.1079 509.684 28.0127 611.629 96.9213 630.943C96.9213 630.943 124.733 639.289 129.295 674.191C133.859 709.094 179.879 768.499 236.414 738.745C292.948 708.991 270.914 632.095 245.974 607.483C221.034 582.869 224.821 582.439 211.929 557.339C199.037 532.24 197.671 530.625 183.758 535.456C169.843 540.287 180.493 574.201 193.888 593.339C207.283 612.477 191.377 623.143 185.667 619.66C179.957 616.177 176.257 588.851 145.088 584.725C113.92 580.597 112.337 545.947 110.989 526.323C110.445 518.393 108.266 510.941 105.865 504.871C104.172 506.306 102.077 507.085 99.8689 506.899C94.9311 506.483 91.3267 501.414 91.8185 495.578C92.096 492.284 93.6213 489.45 95.784 487.68C92.9066 485.318 87.7918 481.916 81.7165 481.403C76.2057 480.939 69.9066 482.852 63.7673 490.077Z" fill="url(#paint1_linear_4307_2345)"/>
<g style="mix-blend-mode:overlay" opacity="0.34">
<path d="M248.028 731.114C245.287 724.481 241.895 718.178 237.31 711.782C229.491 693.434 228.662 676.555 227.857 660.097C226.862 639.777 225.923 620.584 212.522 599.993C192.404 569.083 190.751 544.317 191.277 533.402C190.327 533.525 189.302 533.748 188.187 534.052C187.683 545.771 189.749 570.488 210.015 601.626C222.975 621.538 223.895 640.34 224.869 660.243C225.558 674.319 226.26 688.694 231.214 704.054C215.778 686.13 189.678 666.233 141.497 635.622C94.1856 605.565 78.9541 563.714 74.5075 533.901C71.116 511.168 73.2942 491.786 74.9187 482.148C73.8481 482.479 72.7651 482.918 71.674 483.492C70.0719 493.846 68.315 512.554 71.531 534.226C76.0533 564.692 91.585 607.454 139.891 638.146C194.809 673.037 220.66 694.116 234.544 712.949C237.298 719.401 240.894 726.041 245.635 732.915L245.658 732.9C245.665 732.917 245.671 732.935 245.678 732.953C246.486 732.357 247.274 731.752 248.039 731.133L248.028 731.114Z" fill="#690058"/>
</g>
<path d="M30.5986 522.709C10.9974 546.507 46.6677 579.646 76.789 592.709C106.911 605.773 122.079 618.736 140.14 690.941C158.201 763.144 214.825 749.167 227.425 743.568C240.024 737.969 259.726 699.218 238.796 653.315C217.867 607.413 189.424 611.708 188.309 554.872C187.193 498.035 150.391 522.465 140.671 544.533C130.952 566.601 120.494 565.036 99.9917 544.859C93.3774 538.35 88.2078 533.4 84.229 529.668C84.2083 532.271 83.9704 534.751 83.3244 536.911C82.891 538.361 82.013 539.556 80.8837 540.391C79.2387 541.607 77.0608 542.063 74.9511 541.432C71.3894 540.367 69.365 536.617 70.43 533.056C71.2314 530.373 70.4994 523.85 70.0145 519.535C69.9173 518.674 69.8279 517.865 69.7463 517.092C65.0387 513.919 55.4306 508.967 44.9085 512.322C40.2024 513.822 35.315 516.983 30.5986 522.709Z" fill="url(#paint2_linear_4307_2345)"/>
<g style="mix-blend-mode:overlay" opacity="0.34">
<path d="M159.627 523.161C157.213 544.183 152.538 610.603 180.2 669.49C174.561 661.091 168.719 651.623 162.773 640.953C122.923 569.46 45.4614 536.149 26.8221 528.979C26.4313 529.911 26.09 530.85 25.833 531.801C44.2588 538.894 120.82 571.829 160.159 642.41C193.274 701.822 223.073 725.244 237.345 733.767C237.881 732.943 238.408 732.074 238.926 731.163C234.681 728.607 228.961 724.664 222.118 718.718C214.683 712.258 205.138 702.706 194.362 689.012C153.169 624.776 160.3 541.869 162.83 521.552C161.759 522.009 160.689 522.549 159.627 523.161Z" fill="#690058"/>
</g>
<path d="M209.624 723.309L204.935 725.557L117.021 541.925L168.897 445.059L173.478 447.512L122.848 542.057L209.624 723.309Z" fill="#253138"/>
<path d="M113.794 545.991C116.003 549.385 120.545 550.345 123.937 548.135C127.331 545.926 128.29 541.385 126.081 537.991C123.871 534.598 119.33 533.639 115.937 535.849C112.544 538.058 111.585 542.598 113.794 545.991Z" fill="#2D3092"/>
<path d="M164.189 450.845C166.398 454.238 170.939 455.199 174.331 452.99C177.725 450.78 178.685 446.239 176.475 442.845C174.266 439.453 169.723 438.493 166.331 440.702C162.938 442.912 161.98 447.453 164.189 450.845Z" fill="#F5A623"/>
<path d="M217.444 440.955L192.533 486.189L172.616 470.632L166.655 465.969C163.099 463.188 162.087 458.236 164.267 454.282L175.388 434.116C177.567 430.165 182.293 428.377 186.542 429.899L193.667 432.449L217.444 440.955Z" fill="#FFD000"/>
<path d="M217.441 440.958L192.53 486.193L172.613 470.636L193.664 432.453L217.441 440.958Z" fill="#F5A623" fill-opacity="0.2"/>
<path d="M266.038 456.095L231.288 519.169C229.02 523.287 223.584 524.355 219.926 521.404L191.453 498.431C182.863 491.5 180.484 479.404 185.811 469.736L199.953 444.065C205.28 434.397 216.776 429.945 227.225 433.503L261.855 445.297C266.305 446.812 268.306 451.978 266.038 456.095Z" fill="#E4BA00"/>
<path d="M250.922 741.442H162.02C165.189 725.22 179.402 713.516 195.931 713.516H217.01C233.538 713.516 247.752 725.22 250.922 741.442Z" fill="url(#paint3_linear_4307_2345)"/>
<path d="M920.733 652.553L913.444 744.206H863.019L855.73 652.553H920.733Z" fill="url(#paint4_linear_4307_2345)"/>
<path d="M857.568 675.746L861.57 726.064H914.901L918.902 675.76L857.568 675.746Z" fill="url(#paint5_linear_4307_2345)"/>
<path d="M869.893 701.117C869.893 710.802 877.73 718.653 887.398 718.653C897.067 718.653 904.904 710.802 904.904 701.117C904.904 691.431 897.067 683.58 887.398 683.58C877.73 683.58 869.893 691.431 869.893 701.117Z" fill="url(#paint6_linear_4307_2345)"/>
<g style="mix-blend-mode:overlay" opacity="0.66">
<path d="M884.485 704.058C885.686 702.857 885.978 702.019 886.317 701.049C886.696 699.96 887.127 698.727 888.711 697.142C890.297 695.557 891.531 695.127 892.618 694.747C893.329 694.499 893.969 694.274 894.732 693.702C893.113 692.221 890.872 691.588 888.387 691.917C885.9 692.246 883.446 693.511 881.478 695.48C879.509 697.448 878.244 699.901 877.915 702.389C877.674 704.205 877.949 705.89 878.69 707.298C879.76 706.489 880.658 706.175 881.476 705.89C882.446 705.55 883.284 705.258 884.485 704.058Z" fill="#E3EBF7"/>
<path d="M893.406 696.991C892.436 697.329 891.597 697.621 890.397 698.823C889.196 700.023 888.904 700.861 888.565 701.832C888.185 702.92 887.755 704.154 886.171 705.738C884.585 707.324 883.352 707.754 882.264 708.134C881.553 708.382 880.913 708.605 880.148 709.179C881.489 710.404 883.254 711.049 885.23 711.049C885.643 711.049 886.065 711.021 886.495 710.963C888.981 710.634 891.435 709.37 893.404 707.401C895.372 705.432 896.639 702.979 896.967 700.492C897.208 698.675 896.934 696.99 896.191 695.582C895.123 696.392 894.224 696.705 893.406 696.991Z" fill="#E3EBF7"/>
</g>
<path d="M922.968 659.009H852.398C851.419 659.009 850.625 658.215 850.625 657.237V647.418C850.625 646.44 851.419 645.646 852.398 645.646H922.968C923.946 645.646 924.739 646.44 924.739 647.418V657.237C924.739 658.215 923.946 659.009 922.968 659.009Z" fill="white"/>
<path d="M919.661 645.652H855.705L858.753 636.216C859.164 634.943 860.349 634.08 861.688 634.08H913.678C915.016 634.08 916.201 634.943 916.613 636.216L919.661 645.652Z" fill="#F8EDE0"/>
<path d="M895.502 639.186H881.159C879.762 639.186 878.631 638.054 878.631 636.657V634.08H898.03V636.657C898.03 638.054 896.898 639.186 895.502 639.186Z" fill="#E7CCAC"/>
<path d="M902.16 559.59C900.914 566.508 898.35 578.811 899.366 587.261C900.661 597.321 902.048 602.423 905.985 618.937C899.358 609.338 892.234 598.151 892.782 583.159C893.362 570.835 895.198 569.03 902.16 559.59Z" fill="white" fill-opacity="0.7"/>
<path d="M869.111 551.598C867.865 558.516 865.301 570.818 866.317 579.269C867.613 589.329 869 594.431 872.936 610.945C866.31 601.345 859.186 590.158 859.733 575.167C860.313 562.843 862.149 561.038 869.111 551.598Z" fill="white" fill-opacity="0.7"/>
<path d="M885.285 549.51C883.756 557.996 880.612 573.088 881.858 583.454C883.447 595.794 885.148 602.054 889.977 622.311C881.848 610.535 873.109 596.812 873.781 578.423C874.493 563.304 876.744 561.09 885.285 549.51Z" fill="white" fill-opacity="0.7"/>
<path d="M627.81 450.838C627.81 450.838 579.559 462.474 549.965 485.746C520.371 509.018 500.046 627.318 500.046 627.318C500.046 627.318 483.523 631.197 486.472 646.712C486.472 646.712 514.086 642.949 528.399 672.543C531.89 679.719 534.566 688.873 535.885 700.509C535.885 700.509 550.469 699.578 551.4 686.933C551.4 686.933 564.51 673.823 567.729 649.038C567.807 648.573 567.884 648.146 567.923 647.681C567.923 647.681 569.378 715.403 562.086 740.77L766.248 740.91L808.847 740.77C808.847 740.77 812.865 728.351 810.613 720.123C810.613 720.123 825.596 699.459 810.34 674.486C810.34 674.486 813.715 533.725 794.322 500.291C774.928 466.857 677.496 447.463 677.496 447.463L627.81 450.838Z" fill="url(#paint7_linear_4307_2345)"/>
<g style="mix-blend-mode:multiply">
<path d="M567.498 648.871C564.279 673.656 551.169 686.767 551.169 686.767C550.238 699.411 535.654 700.341 535.654 700.341C534.335 688.706 531.659 679.552 528.168 672.376C535.887 664.929 544.653 653.409 549.734 636.537C560.012 602.56 553.457 565.634 552.992 562.998C561.37 594.764 565.946 633.745 567.498 648.871Z" fill="#9013FE" fill-opacity="0.3"/>
</g>
<g style="mix-blend-mode:multiply">
<path d="M810.101 674.314C810.101 674.314 767.184 650.517 736.777 673.031C737.839 649.866 737.446 597.865 717.477 551.027C717.477 551.027 721.841 646.055 683.054 672.72C644.268 699.386 578.329 694.052 561.846 740.598H808.607C811.058 732.438 811.449 725.435 810.372 719.951C810.372 719.951 825.356 701.441 810.101 674.314Z" fill="#BD10E0" fill-opacity="0.3"/>
</g>
<path d="M694.145 713.478C694.145 713.478 738.09 682.736 785.337 693.699C827.449 703.47 820.175 733.925 808.616 740.597H690.512L694.145 713.478Z" fill="#FDB09E"/>
<path d="M696.514 714.198C696.514 714.198 676.339 702.303 660.056 688.856C658.379 687.471 656.236 686.793 654.066 686.958C645.996 687.572 625.453 689.349 611.168 692.429C609.314 692.829 607.983 694.489 608.019 696.385C608.064 698.677 608.498 701.783 610.192 704.399C610.192 704.399 613.794 708.436 618.753 711.16C618.753 711.16 616.85 713.932 616.724 715.292C616.598 716.652 618.307 721.132 620.673 722.242C620.673 722.242 619.867 723.54 620.278 725.772C620.687 728.004 622.783 731.286 624.531 731.654C626.28 732.022 629.501 732.045 629.501 732.045C629.501 732.045 628.018 734.72 628.119 736.581C628.22 738.442 631.238 741.397 633.246 741.926C635.255 742.455 649.235 741.08 651.919 740.231C654.604 739.383 660.205 732.977 660.205 732.977C660.205 732.977 681.219 742.266 698.34 741.045L696.514 714.198Z" fill="#FFC6AD"/>
<path d="M609.388 702.856L630.817 700.429C630.817 700.429 623.009 706.942 618.757 711.156C618.757 711.156 610.478 706.482 609.388 702.856Z" fill="#FDB09E"/>
<path d="M660.204 732.977L652.511 730.107L642.202 737.182C642.202 737.182 650.904 731.425 658.886 734.42L660.204 732.977Z" fill="#FDB09E"/>
<path d="M659.731 688.598C659.731 688.598 653.851 710.08 662.124 719.899C670.398 729.717 698.341 741.043 698.341 741.043C698.341 741.043 697.45 727.948 696.514 714.196C696.514 714.196 671.339 698.589 659.731 688.598Z" fill="#FDB09E"/>
<path d="M620.852 721.964L638.399 708.719C638.901 708.34 639.615 708.44 639.994 708.943C640.373 709.444 640.273 710.159 639.771 710.537C639.745 710.557 639.716 710.578 639.688 710.595L621.043 722.242C620.964 722.292 620.86 722.268 620.811 722.189C620.764 722.114 620.783 722.016 620.852 721.964Z" fill="#FDB09E"/>
<path d="M629.43 731.944L645.871 718.548C646.362 718.149 647.086 718.222 647.486 718.713C647.886 719.205 647.811 719.927 647.319 720.327C647.291 720.35 647.262 720.374 647.231 720.393L629.575 732.139C629.518 732.176 629.443 732.161 629.406 732.105C629.372 732.052 629.382 731.983 629.43 731.944Z" fill="#FDB09E"/>
<path d="M486.219 647.259L422.121 729.541L484.696 729.358L535.633 701.057C535.633 701.057 546.821 643.157 486.219 647.259Z" fill="#F49186"/>
<path d="M470.942 728.735C470.497 728.79 429.112 730.348 429.112 730.348C429.112 730.348 425.584 707.279 426.201 707.395C426.819 707.511 458.676 700.91 460.363 701.149C462.05 701.387 474.237 726.207 474.237 726.207L470.942 728.735Z" fill="#F49186"/>
<path d="M477.315 718.389L468.655 721.882C465.802 723.033 464.21 726.091 464.904 729.089C465.346 730.996 467.226 732.205 469.145 731.812L477.299 730.142L480.354 729.672C481.833 729.443 483.041 728.374 483.45 726.935C483.998 725.006 484.679 722.513 484.7 721.972C484.735 721.065 477.922 703.381 477.922 703.381L477.315 718.389Z" fill="#FDB09E"/>
<path d="M425.987 699.486L427.957 699.037C428.937 698.813 429.818 698.278 430.468 697.513L432.623 694.976C433.529 693.909 434.866 693.307 436.266 693.337L438.898 693.393C440.337 693.424 441.709 692.786 442.613 691.666L443.892 690.083C444.903 688.832 446.49 688.192 448.087 688.393L453.221 689.037C454.043 689.139 454.878 689.022 455.64 688.693L461.906 685.992C461.906 685.992 477.803 691.359 478.667 708.878L477.856 716.989C477.667 718.875 476.26 720.412 474.398 720.765L468.135 721.956C466.712 722.226 465.319 721.365 464.926 719.972L461.797 708.907L463.678 720.124C464.012 722.115 462.746 724.022 460.784 724.49L455.883 725.657C453.8 726.153 451.714 724.848 451.25 722.759L448.15 708.829L449.984 723.298C450.227 725.215 448.871 726.967 446.952 727.21L442.339 727.796C440.722 728.001 439.196 726.997 438.746 725.43L434.163 709.506L437.44 725.3C437.761 726.851 436.842 728.39 435.323 728.842L431.377 730.014C429.655 730.526 427.842 729.568 427.292 727.86L421.626 710.238C421.081 708.545 421.111 706.721 421.712 705.047L422.644 702.449C423.179 700.956 424.44 699.839 425.987 699.486Z" fill="#FFC6AD"/>
<path d="M686.279 453.194C678.134 477.975 664.774 512.087 635.313 511.367C609.591 510.739 613.623 479.953 619.096 463.106C619.909 460.603 619.374 462.017 619.99 460.358C617.261 444.618 616.3 428.413 614.936 412.418C638.012 402.561 661.152 393.051 684.105 382.791C684.193 386.412 684.21 386.594 684.228 390.593C684.246 394.592 684.176 383.146 684.221 393.156C684.267 403.167 684.593 438.066 686.279 453.194Z" fill="#FDB09E"/>
<path d="M619.39 461.89C619.247 462.816 619.798 460.689 619.962 460.445C617.297 444.511 616.285 428.461 614.936 412.417C638.043 402.506 661.09 393.162 684.157 382.697C684.157 382.697 684.921 383.244 683.204 395.014C679.539 411.797 660.51 474.784 619.39 461.89Z" fill="#FF856A"/>
<path d="M576.449 250.434C574.84 256.83 572.892 268.468 577.641 275.338C567.815 269.623 569.356 269.41 561.605 262.476C553.192 254.949 552.467 296.627 554.227 303.892C555.987 311.157 558.387 332.735 569.391 336.516C573.37 353.065 583.461 365.445 593.187 372.134C606.489 381.285 630.995 380.828 653.285 380.281C662.824 380.046 671.956 379.794 679.632 380.272C681.169 378.627 682.597 377.224 683.967 375.937C684.043 378.487 684.275 380.871 684.853 381.411C686.207 382.674 685.934 398.46 685.934 398.46C685.934 398.46 691.335 384.092 691.423 376.792C691.467 373.238 691.499 370.706 691.518 369.034C693.755 366.898 696.059 364.477 698.655 361.182C705.085 353.025 710.743 338.381 713.692 326.812C714.551 331.032 714.956 334.142 714.956 334.142C716.783 318.385 716.441 311.094 715.6 307.765C714.697 303.015 712.032 299.252 706.197 297.834C714.546 286.539 703.455 267.349 703.455 267.349C704.212 272.243 703.435 277.901 702.428 282.446C701.855 278.653 700.889 275.018 698.141 271.52C690.892 257.808 661.237 252.161 661.237 252.161C663.039 252.88 666.276 255.746 669.739 259.188C657.059 258.109 642.343 260.136 628.182 264.256C614.533 268.229 590.783 254.316 581.574 248.413C581.041 248.072 580.458 247.899 579.882 247.875C578.349 247.812 576.86 248.799 576.449 250.434Z" fill="url(#paint8_linear_4307_2345)"/>
<path d="M681.484 372.187C670.935 361.659 668.062 342.14 677.096 333.507C664.446 345.594 630.954 340.101 630.954 340.101C630.954 340.101 639.078 337.417 641.19 329.514C641.19 329.514 603.121 335.232 595.875 339.836C595.875 339.836 595.664 332.643 603.225 326.931C593.58 327.294 585.695 328.997 584.961 333.505C582.995 345.579 587.397 416.643 610.579 434.279C633.762 451.916 661.99 427.112 673.11 414.747C684.229 402.382 679.794 397.546 686.038 386.845C694.778 383.841 698.148 385.23 700.636 368.978C703.123 352.727 689.157 347.232 681.484 372.187Z" fill="#FDB09E"/>
<path d="M531.426 729.355H309.399C308.058 729.355 306.971 730.443 306.971 731.785V739.027C306.971 740.368 308.058 741.456 309.399 741.456H531.426C532.768 741.456 533.854 740.368 533.854 739.027V731.785C533.854 730.443 532.768 729.355 531.426 729.355Z" fill="#6A00A7"/>
<path d="M366.394 562.916H178.185C169.668 562.916 163.813 571.55 166.906 579.551L221.88 721.766C223.691 726.453 228.17 729.538 233.159 729.538H428.011C433.333 729.538 436.992 724.143 435.059 719.143L377.673 570.688C375.861 566.002 371.383 562.916 366.394 562.916Z" fill="#FEDB13"/>
<path d="M176.999 566.363C168.59 566.363 162.811 574.818 165.864 582.653L220.135 721.919C221.923 726.509 226.344 729.531 231.27 729.531H423.626C428.881 729.531 432.493 724.247 430.585 719.35L373.933 573.975C372.145 569.385 367.724 566.363 362.798 566.363H176.999Z" fill="url(#paint9_linear_4307_2345)"/>
<g style="mix-blend-mode:overlay" opacity="0.66">
<path d="M306.721 649.227C311.238 660.226 308.736 671.674 301.135 674.796C293.533 677.917 283.709 671.531 279.192 660.532C274.675 649.533 277.177 638.086 284.777 634.964C292.38 631.842 302.204 638.228 306.721 649.227Z" fill="#E3EBF7"/>
</g>
<path d="M433.159 729.355H228.723C227.388 729.355 226.307 730.437 226.307 731.772V739.039C226.307 740.373 227.388 741.456 228.723 741.456H433.159C434.493 741.456 435.576 740.373 435.576 739.039V731.772C435.576 730.437 434.493 729.355 433.159 729.355Z" fill="#AF8200"/>
<path d="M1037.48 754.341H93.0176V741.32H1037.48V754.341ZM1037.48 754.341H828.029V741.32H1037.48V754.341Z" fill="#9013FE"/>
<path d="M1037.48 754.341H828.029V741.32H1037.48V754.341Z" fill="#BD10E0"/>
<path d="M758.533 730.656H559.428V741.323H758.533V730.656ZM697.122 730.656H758.533V741.323H697.122V730.656Z" fill="#DE5BF8"/>
<path d="M697.117 730.656H758.53V741.323H697.117V730.656Z" fill="#B969FF"/>
</g>
<defs>
<linearGradient id="paint0_linear_4307_2345" x1="548.36" y1="409.885" x2="653.382" y2="865.95" gradientUnits="userSpaceOnUse">
<stop offset="0.01" stop-color="#EFD9F5"/>
<stop offset="0.41" stop-color="#FFFABC"/>
<stop offset="1" stop-color="#FFFEDD"/>
</linearGradient>
<linearGradient id="paint1_linear_4307_2345" x1="225.989" y1="728.877" x2="84.7519" y2="520.155" gradientUnits="userSpaceOnUse">
<stop stop-color="#6956AB"/>
<stop offset="0.41" stop-color="#867FC0"/>
<stop offset="1" stop-color="#A4A8D5"/>
</linearGradient>
<linearGradient id="paint2_linear_4307_2345" x1="232.718" y1="749.095" x2="103.549" y2="645.108" gradientUnits="userSpaceOnUse">
<stop stop-color="#6956AB"/>
<stop offset="0.41" stop-color="#867FC0"/>
<stop offset="1" stop-color="#A4A8D5"/>
</linearGradient>
<linearGradient id="paint3_linear_4307_2345" x1="173.899" y1="747.077" x2="228.702" y2="711.192" gradientUnits="userSpaceOnUse">
<stop stop-color="#666666"/>
<stop offset="0.41" stop-color="#414141"/>
<stop offset="1" stop-color="#1C1C1C"/>
</linearGradient>
<linearGradient id="paint4_linear_4307_2345" x1="888.536" y1="649.851" x2="888.458" y2="747.688" gradientUnits="userSpaceOnUse">
<stop stop-color="#F1DBC1"/>
<stop offset="0.41" stop-color="#ECCDB7"/>
<stop offset="1" stop-color="#E7BFAD"/>
</linearGradient>
<linearGradient id="paint5_linear_4307_2345" x1="888.202" y1="674.631" x2="888.646" y2="725.871" gradientUnits="userSpaceOnUse">
<stop stop-color="#C8BC33"/>
<stop offset="0.41" stop-color="#AE9421"/>
<stop offset="1" stop-color="#948A0F"/>
</linearGradient>
<linearGradient id="paint6_linear_4307_2345" x1="872.17" y1="707.779" x2="904.418" y2="691.12" gradientUnits="userSpaceOnUse">
<stop offset="0.01" stop-color="#C69C6D"/>
<stop offset="0.41" stop-color="#A97F53"/>
<stop offset="1" stop-color="#8C6239"/>
</linearGradient>
<linearGradient id="paint7_linear_4307_2345" x1="695.1" y1="549.236" x2="441.52" y2="547.91" gradientUnits="userSpaceOnUse">
<stop stop-color="#FDC534"/>
<stop offset="0.41" stop-color="#E5BB00"/>
<stop offset="1" stop-color="#BC9900"/>
</linearGradient>
<linearGradient id="paint8_linear_4307_2345" x1="710.884" y1="322.955" x2="567.69" y2="282.008" gradientUnits="userSpaceOnUse">
<stop stop-color="#5E3434"/>
<stop offset="0.41" stop-color="#4F2C2C"/>
<stop offset="1" stop-color="#3F2323"/>
</linearGradient>
<linearGradient id="paint9_linear_4307_2345" x1="274.829" y1="559.436" x2="282.242" y2="736.25" gradientUnits="userSpaceOnUse">
<stop stop-color="#FF9F00"/>
<stop offset="0.41" stop-color="#F5A623"/>
<stop offset="1" stop-color="#F8E71C"/>
</linearGradient>
</defs>
</svg>
